#tb 0: 1/25
#media_type 0: video
#codec_id 0: rawvideo
#dimensions 0: 1920x1080
#sar 0: 0/1
0,          0,          0,        1,  6220800, 0xa419cfb6
0,          1,          1,        1,  6220800, 0xa419cfb6
0,          2,          2,        1,  6220800, 0xa419cfb6
0,          3,          3,        1,  6220800, 0xa419cfb6
